
    <svg width="600" height="400" xmlns="http://www.w3.org/2000/svg">
      <defs>
        <pattern id="grid" width="40" height="40" patternUnits="userSpaceOnUse">
          <rect width="40" height="40" fill="#3da60d"/>
          <circle cx="20" cy="20" r="15" fill="#e5b11c"/>
          <rect x="10" y="10" width="20" height="20" fill="#c01f3e" transform="rotate(45 20 20)"/>
        </pattern>
      </defs>
      <rect width="600" height="400" fill="url(#grid)"/>
      <circle cx="300" cy="200" r="150" fill="black"/>
      <g transform="translate(100, 150)">
        
    <svg width="400" height="100" xmlns="http://www.w3.org/2000/svg">
      <rect width="100%" height="100%" fill="black"/>
      <!-- Stylized "M" logo in pink -->
      <g transform="translate(20, 15) scale(1.5)">
        <path d="M10,10 C10,10 20,10 40,10 C60,10 70,10 70,10 C70,10 70,20 70,40 C70,60 70,70 70,70 C70,70 60,70 40,70 C20,70 10,70 10,70 C10,70 10,60 10,40 C10,20 10,10 10,10 Z" 
              fill="none" stroke="#ff5a78" stroke-width="2" />
        <path d="M30,25 L30,55 M50,25 L50,55 M30,25 L40,40 L50,25" 
              fill="none" stroke="#ff5a78" stroke-width="2" />
      </g>
      <!-- MESA text -->
      <text x="180" y="60" font-family="Arial" font-size="42" font-weight="bold" fill="white">mesa</text>
    </svg>
  
      </g>
      <text x="150" y="320" font-family="monospace" font-size="14" fill="white">did:base:mesa:4999fba627d4</text>
      <text x="130" y="350" font-family="Arial" font-size="16" fill="white">Protecting Music Rights On Base</text>
      <text x="250" y="375" font-family="Arial" font-size="12" fill="#ff5a78">Verified Identity</text>
    </svg>
  